PathFileType	4	(X/Y/Z)	\\move.snu.ac.kr\motion\Animal\091204_091205_Bird\091205_bird\Project 2\Capture day 2\Session 1\pigeon_021.trc
DataRate	CameraRate	NumFrames	NumMarkers	Units	OrigDataRate	OrigDataStartFrame	OrigNumFrames
240.0	240.0	8	14	mm	240.0	70	2193
Frame#	Time	14MarkersBird:Head			14MarkersBird:C_back			14MarkersBird:Spine			14MarkersBird:L-shoulder			14MarkersBird:L-elbow			14MarkersBird:L-wrist			14MarkersBird:L-hand			14MarkersBird:R-shoulder			14MarkersBird:R-elbow			14MarkersBird:R-Wrist			14MarkersBird:R-hand			14MarkersBird:C_Tail			14MarkersBird:L-Tale			14MarkersBird:R-Tale			
		X1	Y1	Z1	X2	Y2	Z2	X3	Y3	Z3	X4	Y4	Z4	X5	Y5	Z5	X6	Y6	Z6	X7	Y7	Z7	X8	Y8	Z8	X9	Y9	Z9	X10	Y10	Z10	X11	Y11	Z11	X12	Y12	Z12	X13	Y13	Z13	X14	Y14	Z14	

939	3.908	598.50824	1422.02783	-2153.24170	654.01617	1426.71570	-2143.34692	709.28925	1419.00562	-2134.47900	624.21741	1425.25317	-2128.74512	661.03149	1442.74268	-2129.16064	633.31110	1473.96143	-2117.25903	645.90533	1477.27930	-2101.72754	632.37030	1417.94006	-2166.12866	669.40723	1444.05957	-2156.82910	642.77551	1456.83044	-2190.98755	659.95465	1451.85522	-2211.05151	803.44104	1347.16077	-2087.91675	729.82159	1399.88452	-2030.40637	767.06140	1347.43848	-2204.17529	
940	3.912	590.61682	1419.67688	-2153.63013	645.72058	1424.35779	-2143.96533	701.34503	1415.73682	-2134.70190	616.29254	1422.62097	-2129.08398	652.17542	1440.91052	-2132.62622	627.47552	1475.27466	-2120.25806	643.23956	1483.62683	-2108.01685	624.35199	1415.91394	-2166.24194	659.82593	1442.85229	-2154.38354	636.74329	1459.55933	-2190.39795	658.43439	1463.05603	-2209.68384	795.53265	1344.89819	-2087.55762	720.50909	1399.42981	-2030.75391	758.41370	1346.45898	-2206.56396	
941	3.917	582.74048	1417.37390	-2154.07324	637.59125	1421.95996	-2144.59399	693.39398	1412.39563	-2134.97632	608.48108	1419.98779	-2129.35498	642.95795	1438.93542	-2134.94434	620.95593	1475.54810	-2121.79370	638.53888	1488.67664	-2113.42114	616.41260	1413.61328	-2166.61597	649.65942	1440.84265	-2153.18921	630.34766	1460.59265	-2190.79102	654.88922	1472.32764	-2208.62476	788.06140	1342.85083	-2087.61743	711.59363	1398.59692	-2031.23535	749.96265	1345.57385	-2208.95923	
942	3.921	574.88892	1415.10034	-2154.51001	629.71924	1419.42102	-2145.16309	685.52966	1408.92542	-2135.27856	600.75549	1417.37500	-2129.59448	633.51544	1436.92053	-2136.00562	613.77057	1474.75037	-2121.48389	631.59137	1491.94336	-2116.62695	608.48285	1411.06238	-2167.26758	639.41602	1438.15356	-2153.45190	623.68195	1459.70801	-2192.56226	649.27289	1478.66077	-2208.99072	780.97925	1340.96692	-2088.17798	703.08453	1397.32031	-2031.87012	741.63605	1344.66296	-2211.29248	
943	3.925	567.01422	1412.83508	-2154.94507	622.05554	1416.75854	-2145.66382	677.72943	1405.40808	-2135.62671	593.06061	1414.81042	-2129.84888	623.98077	1434.89868	-2135.80835	605.90564	1472.80505	-2119.18506	622.63177	1493.10803	-2116.66309	600.56787	1408.30432	-2168.18555	629.39532	1434.97156	-2155.33301	616.74567	1456.83752	-2195.86572	641.76874	1481.19971	-2211.54297	774.18219	1339.16382	-2089.27124	694.94684	1395.56665	-2032.60645	733.36316	1343.60388	-2213.49976	
944	3.929	559.12018	1410.59070	-2155.36621	614.53510	1413.97632	-2146.11572	669.97052	1401.92542	-2136.03809	585.37128	1412.26550	-2130.14014	614.43988	1432.79895	-2134.45898	597.27814	1469.54004	-2115.09253	611.85089	1491.91663	-2113.33716	592.63647	1405.35510	-2169.30176	619.59143	1431.34875	-2158.81665	609.50500	1451.85168	-2200.49902	632.54291	1479.38220	-2216.73901	767.50800	1337.31799	-2090.84326	687.09711	1393.27869	-2033.42017	725.10986	1342.30518	-2215.52563	
945	3.933	551.19678	1408.40955	-2155.81714	607.12988	1411.12195	-2146.47998	662.23022	1398.55945	-2136.53052	577.63452	1409.75085	-2130.50415	604.89185	1430.46619	-2132.12207	587.80939	1464.69714	-2109.63672	599.46161	1488.18909	-2106.90234	584.60718	1402.26074	-2170.62866	610.13995	1427.41736	-2163.57715	601.56879	1444.92065	-2206.12524	621.84766	1473.10889	-2224.34058	760.78857	1335.33020	-2092.79150	679.42462	1390.38477	-2034.28577	716.86707	1340.74805	-2217.34546	
946	3.938	543.23163	1406.27002	-2156.29077	599.75159	1408.24658	-2146.75610	654.48584	1395.39209	-2137.12134	569.82910	1407.23962	-2130.91406	595.27039	1427.71509	-2129.03467	577.42773	1458.14722	-2103.39893	585.66730	1481.78760	-2098.10815	576.45819	1399.13770	-2172.02148	600.92548	1423.10522	-2169.29688	592.84442	1436.07629	-2212.10669	609.86279	1462.58826	-2233.58765	753.82593	1333.08447	-2094.95288	671.86829	1386.92395	-2035.19983	708.66748	1338.96167	-2218.93750	
